<?xml version="1.0" encoding="UTF-8" standalone="no"?>
<!-- Created with Inkscape (http://www.inkscape.org/) -->

<svg
   width="106.4427mm"
   height="165.13181mm"
   viewBox="0 0 106.4427 165.13181"
   version="1.1"
   id="svg1"
   xml:space="preserve"
   xmlns="http://www.w3.org/2000/svg"
   xmlns:svg="http://www.w3.org/2000/svg"><defs
     id="defs1" /><g
     id="layer1"
     transform="translate(-51.902314,-79.083811)"><g
       id="g2"><path
         style="fill:#1d2c38;stroke:none"
         d="m 51.902313,180.81382 0.26458,0.26458 -0.26458,-0.26458"
         id="path234" /><path
         style="fill:#1d2c38;stroke:none"
         d="m 51.902313,180.28465 0.26458,0.26459 -0.26458,-0.26459"
         id="path233" /><path
         style="fill:#1d2c38;stroke:none"
         d="m 54.459953,178.78536 0.17638,0.0882 -0.17638,-0.0882"
         id="path232" /><path
         style="fill:#1d2c38;stroke:none"
         d="m 58.781483,176.58049 0.26458,0.26458 -0.26458,-0.26458"
         id="path230" /><path
         style="fill:#1d2c38;stroke:none"
         d="m 60.104383,175.52215 0.26459,0.26459 -0.26459,-0.26459"
         id="path227" /><path
         style="fill:#1d2c38;stroke:none"
         d="m 61.691883,174.46382 0.26459,0.26458 -0.26459,-0.26458"
         id="path225" /><path
         style="fill:#1d2c38;stroke:none"
         d="m 63.279383,173.40549 0.26459,0.26458 -0.26459,-0.26458"
         id="path223" /><path
         style="fill:#1d2c38;stroke:none"
         d="m 64.073133,172.87632 0.26459,0.26458 -0.26459,-0.26458"
         id="path222" /><path
         style="fill:#00ced1;fill-opacity:1;stroke:none"
         d="m 103.7606,163.65936 c -0.81802,2.38639 -4.388907,10.78824 -9.260377,15.32604 -13.66977,12.73364 -22.97434,22.18597 -30.21619,34.10757 -0.83285,1.37104 -1.68213,3.15395 -3.38589,3.43959 0.15033,-1.72169 7.38024,-24.86963 14.57597,-32.54273 4.24255,-4.52401 21.9189,-21.82893 28.286487,-20.33047"
         id="path201" /><path
         style="fill:#1d2c38;stroke:none"
         d="m 134.71685,161.23464 0.26458,0.26459 -0.26458,-0.26459"
         id="path176" /><path
         style="fill:#1d2c38;stroke:none"
         d="m 138.6856,159.11798 0.26458,0.26458 -0.26458,-0.26458"
         id="path170" /><path
         style="fill:#1d2c38;stroke:none"
         d="m 54.283523,157.3541 c 0.20462,0 0.0424,0.13171 -0.0882,0.0882 l 0.0882,-0.0882"
         id="path161" /><path
         style="fill:#1d2c38;stroke:none"
         d="m 109.05227,157.00131 -0.26459,0.52917 0.26459,-0.52917"
         id="path160" /><path
         style="fill:#1d2c38;stroke:none"
         d="m 56.400193,156.73673 -0.26459,0.26458 0.26459,-0.26458"
         id="path159" /><path
         style="fill:#1d2c38;stroke:none"
         d="m 54.283523,156.47214 -0.26458,0.26459 0.26458,-0.26459"
         id="path157" /><path
         style="fill:#00ced1;fill-opacity:1;stroke:none"
         d="m 149.26893,153.82631 c -13.20019,11.27732 -29.4337,21.00881 -44.71458,29.89792 0.21089,-4.10935 4.1304,-8.81878 6.88304,-11.64167 7.22687,-7.41128 26.53364,-25.35432 37.83154,-18.25625"
         id="path142" /><path
         style="fill:#00ced1;fill-opacity:1;stroke:none"
         d="m 93.706433,148.27007 c 1.45641,2.36827 6.08542,6.08542 6.08542,6.08542 l -14.2875,10.31875 5.87881,-11.1125 2.32327,-5.29167"
         id="path129" /><path
         style="fill:#008080;fill-opacity:1;stroke:none"
         d="m 151.91476,151.18049 c -18.53689,-7.25319 -58.679157,8.00398 -75.828207,30.42708 -1.98918,2.67192 -2.07712,-2.52884 1.70672,-7.14375 11.07873,-13.61378 38.642027,-27.34643 41.048577,-28.49029 7.41216,-3.52306 15.37404,-7.36872 23.8125,-5.58522 3.43143,0.72524 7.35871,2.49729 8.69695,6.02968 0.56831,1.50008 0.50874,3.18307 0.56346,4.7625"
         id="path110" /><path
         style="fill:#1d2c38;stroke:none"
         d="m 139.47935,124.45756 0.52917,0.52917 -0.52917,-0.52917"
         id="path95" /><path
         style="fill:#00ced1;fill-opacity:1;stroke:none"
         d="m 112.49185,109.11172 c -2.19366,3.50759 -5.43596,6.31744 -7.31034,10.05417 -4.92102,9.81038 -3.68999,22.26782 7.83951,26.19374 0,0 -5.84332,5.16482 -9.26042,5.01628 -6.045657,-0.26279 -9.260057,-6.88284 -9.260417,-12.16003 -8.9e-4,-13.56759 11.642527,-28.77477 17.991667,-29.10416"
         id="path80" /><path
         style="fill:#008080;fill-opacity:1;stroke:none"
         d="m 142.38977,128.69091 c 0.33158,0.53327 0.52916,0.97959 0.52916,1.5875 -3.30123,0.51632 -6.61382,-1.91618 -8.68532,-4.23334 -7.1143,-7.8062 -5.25024,-15.04309 -0.57509,-23.8125 2.21086,1.25663 7.11698,10.89774 7.14354,16.40417 0.0155,3.22139 -1.39722,7.79096 1.58771,10.05417"
         id="path69" /><path
         style="fill:#00ced1;fill-opacity:1;stroke:none"
         d="m 129.95435,101.43882 c -0.77649,5.25777 -2.65244,11.16216 -5.57708,15.61042 -3.51943,5.59169 -12.34037,11.55938 -9.82999,19.05 1.59223,3.35835 13.9511,1.76507 16.20082,1.5875 0,0 -10.83561,6.33785 -17.72708,4.3846 -12.25868,-3.4745 -11.56685,-23.37756 9.78958,-36.77605 2.31598,-1.45298 4.48826,-3.08621 7.14375,-3.85647"
         id="path63" /><path
         style="fill:#008080;fill-opacity:1;stroke:none"
         d="m 126.51477,99.057572 v 0.52917 c -2.78638,1.584218 -6.01254,2.105278 -8.99584,3.189288 -5.82435,2.11636 -11.56956,5.02009 -16.13958,9.2698 -14.391997,13.38331 -13.672817,31.32936 -37.041657,35.54278 -1.85811,0.33501 -4.71535,1.11838 -5.82084,-0.90603 15.37541,-4.75061 19.62485,-14.30365 27.5375,-26.72292 8.05443,-11.88264 16.914487,-19.20108 31.464577,-21.242208 2.79252,-0.33396 6.32494,-0.66012 8.99584,0.34012"
         id="path59" /><path
         style="fill:#008080;fill-opacity:1;stroke:none"
         d="m 155.12487,89.511782 c 0.97932,-0.13371 1.75379,1.14922 2.12505,1.8729 3.45069,6.726251 -2.10853,23.497788 -4.89051,30.956248 -4.3106,11.55669 -10.27772,6.87055 -9.09647,-1.32292 0.608,-4.21725 7.89807,-10.94191 9.97372,-21.166668 0.78344,-3.859217 -0.14311,-10.062212 1.88821,-10.33956"
         id="path35" /><path
         style="fill:#1d2c38;stroke:none"
         d="m 140.31191,93.070313 v 0.26459 h 3.96875 l -3.96875,-0.26459"
         id="path33" /><path
         style="fill:#1d2c38;stroke:none"
         d="m 127.08274,91.747403 0.26459,0.26458 -0.26459,-0.26458"
         id="path30" /><path
         style="fill:#00ced1;fill-opacity:1;stroke:none"
         d="m 135.19591,79.174974 c 12.70114,-1.63409 15.12297,19.22121 2.11666,20.69895 -6.17126,0.701166 -11.4156,-6.67874 -10.80199,-12.30884 0.45424,-4.1678 4.66852,-7.87331 8.68533,-8.39011"
         id="path10" /><rect
         style="fill:#0a2f2f;fill-opacity:1;stroke-width:0.16138"
         id="rect251"
         width="4.966835"
         height="10.081013"
         x="76.091408"
         y="206.9146"
         rx="3.4255893" /><rect
         style="fill:#0e4444;fill-opacity:1;stroke-width:0.20323"
         id="rect251-6"
         width="4.966835"
         height="15.987564"
         x="84.810493"
         y="200.84384"
         rx="3.4255893" /><rect
         style="fill:#0e4444;fill-opacity:1;stroke-width:0.225957"
         id="rect251-6-2"
         width="4.966835"
         height="19.763275"
         x="93.529579"
         y="197.03296"
         rx="3.4255893" /><rect
         style="fill:#0e4444;fill-opacity:1;stroke-width:0.24917"
         id="rect251-6-2-3"
         width="4.966835"
         height="24.032425"
         x="102.24866"
         y="192.76381"
         rx="3.4255893" /><rect
         style="fill:#146161;fill-opacity:1;stroke-width:0.274497"
         id="rect251-6-2-3-2"
         width="4.966835"
         height="29.166204"
         x="110.96775"
         y="187.63004"
         rx="3.4255893" /><rect
         style="fill:#1c8080;fill-opacity:1;stroke-width:0.298182"
         id="rect251-6-2-3-2-7"
         width="4.966835"
         height="34.416473"
         x="119.68684"
         y="182.37976"
         rx="3.4255893" /><rect
         style="fill:#25a2a2;fill-opacity:1;stroke-width:0.313366"
         id="rect251-6-2-3-2-7-2"
         width="4.966835"
         height="38.01088"
         x="128.40591"
         y="178.78535"
         rx="3.4255893" /><rect
         style="fill:#1ed0d0;fill-opacity:1;stroke-width:0.3307"
         id="rect251-6-2-3-2-7-2-9"
         width="4.966835"
         height="42.33242"
         x="137.125"
         y="174.46381"
         rx="3.4255893" /><rect
         style="fill:#00ffff;fill-opacity:1;stroke-width:0.351412"
         id="rect251-6-2-3-2-7-2-9-9"
         width="4.966835"
         height="47.801163"
         x="145.84409"
         y="168.99506"
         rx="3.4255893" /></g><text
       xml:space="preserve"
       style="font-weight:800;font-size:26.8918px;font-family:Poppins;-inkscape-font-specification:'Poppins Ultra-Bold';text-align:start;writing-mode:lr-tb;direction:ltr;text-anchor:start;fill:#00ced1;fill-opacity:1;stroke-width:2.24097"
       x="56.355358"
       y="244.21561"
       id="text251"><tspan
         id="tspan251"
         style="font-style:normal;font-variant:normal;font-weight:normal;font-stretch:normal;font-family:Movement;-inkscape-font-specification:Movement;fill:#00ced1;fill-opacity:1;stroke-width:2.24097"
         x="56.355358"
         y="244.21561">RITMOO</tspan></text></g></svg>
